<svg width="1620" height="702" viewBox="0 0 1620 702" fill="none" xmlns="http://www.w3.org/2000/svg">
<g id="Group 6">
<g id="Group 5">
<path id="Rectangle 91" d="M0 0H1620V594C1004 662 1072 798 0 594V0Z" fill="url(#paint0_linear_16_118)"/>
<path id="Vector 48" d="M752 670C752 611.089 747.965 532.216 823.111 515.778C839.099 512.28 850.01 517.654 864.889 518C890.925 518.606 917.773 517.348 941.778 506C981.309 487.313 937.319 440.215 968.889 418C994.933 399.673 1035.28 423.683 1059.11 406C1094.28 379.909 1071.26 296.808 1076.89 258C1079.54 239.684 1094.84 224.437 1112.89 219.778C1135.64 213.906 1144.35 240.222 1164.89 240.222C1252.07 240.222 1169.39 74 1204 74" stroke="#5E6F7F" stroke-width="3" stroke-linecap="round"/>
<path id="Vector 49" d="M1052 606C1078.31 608.631 1121.4 634.694 1134.22 599.333C1150.34 554.897 1113.9 510 1067.11 510C1039.41 510 1031.75 546.915 1027.11 567.778C1020.84 595.992 1041.58 598.791 1064 610" stroke="#5E6F7F" stroke-width="3" stroke-linecap="round"/>
<path id="Vector 50" d="M1292 434C1264.63 430.959 1264.55 363.611 1263.78 345.778C1261.84 301.164 1256.3 256.433 1256 211.778C1255.81 183.164 1249.3 144.564 1259.56 117.111C1269.3 91.0436 1304.14 67.8831 1327.56 55.1111C1362.3 36.1568 1385.89 44.2251 1405.78 73.1111C1422.97 98.09 1456.65 119.514 1466.22 148.222C1476.37 178.666 1475.63 215.713 1476 247.778C1476.47 288.297 1473.09 328.623 1435.33 352.222C1422.76 360.083 1386.44 373.126 1380 386" stroke="#5E6F7F" stroke-width="3" stroke-linecap="round"/>
<path id="Vector 51" d="M83.6961 312.31C83.6961 267.93 77.7524 240.342 100.601 196.413C116.89 165.095 139.689 135.38 179.786 143.294C199.701 147.224 210.721 172.383 219.824 187.852C241.316 224.379 238.065 255.017 218.044 291.896C202.424 320.67 149.386 346.401 156.208 383.428C158.727 397.098 172.396 407.744 181.788 417.012C203.843 438.776 218.313 465.279 237.618 489.228C255.592 511.527 274.974 533.536 293.893 555.078C300.847 562.997 312.544 568.098 316.803 577.906C333.92 617.318 365.935 646.163 408 660" stroke="#5E6F7F" stroke-width="3" stroke-linecap="round"/>
<path id="Vector 52" d="M76 310C74.7046 273.701 67.0061 232.778 59.5132 197.568C56.3887 182.885 53.8284 161.983 45.037 151.273C32.3869 135.861 19.4678 121.422 4 112" stroke="#5E6F7F" stroke-width="3" stroke-linecap="round"/>
<path id="Vector 53" d="M1512 522C1496.28 513.676 1490.44 470.445 1498.67 454C1510.11 431.121 1534.18 438.482 1552.89 428.222C1565.99 421.038 1587.37 404.08 1594.22 390C1602.51 372.954 1587.68 351.371 1582.22 336C1573.82 312.328 1567.32 288.462 1562 264C1552.46 220.103 1576.85 205.365 1608 182" stroke="#5E6F7F" stroke-width="3" stroke-linecap="round"/>
<path id="Vector 54" d="M620 98C621.452 122.676 646.334 142.069 663.111 157.111C686.451 178.037 720.157 161.754 744 152C794.842 131.201 854.825 145.027 908.444 141.778C933.837 140.239 933.931 113.104 944 98" stroke="#5E6F7F" stroke-width="3" stroke-linecap="round"/>
</g>
</g>
<defs>
<linearGradient id="paint0_linear_16_118" x1="810" y1="0" x2="810" y2="701.743" gradientUnits="userSpaceOnUse">
<stop stop-color="#202636"/>
<stop offset="1" stop-color="#3B4D61"/>
</linearGradient>
</defs>
</svg>
